<?xml version="1.0" standalone="no"?>
<!DOCTYPE svg PUBLIC "-//W3C//DTD SVG 20010904//EN"
 "http://www.w3.org/TR/2001/REC-SVG-20010904/DTD/svg10.dtd">
<svg version="1.0" xmlns="http://www.w3.org/2000/svg"
 width="25.000000pt" height="25.000000pt" viewBox="100 1 100.000000 100.000000"
 preserveAspectRatio="xMidYMid meet">

<g transform="translate(0.000000,0.000000) scale(0.100000,-0.100000)"
fill="#fff" stroke="none">
<path d="M501 1265 c-178 -39 -348 -172 -429 -336 -127 -256 -81 -540 118
-739 251 -252 649 -252 900 0 252 251 252 649 0 900 -155 156 -375 221 -589
175z m284 -55 c315 -81 505 -401 425 -715 -81 -315 -401 -505 -715 -425 -103
26 -196 79 -271 154 -230 230 -230 602 0 832 148 147 359 206 561 154z"/>
<path d="M625 948 c-3 -7 -6 -74 -7 -148 l-3 -135 -152 -3 c-144 -2 -153 -4
-153 -22 0 -18 9 -20 153 -22 l152 -3 3 -157 c2 -149 4 -158 22 -158 18 0 20
9 22 158 l3 157 153 3 c143 2 152 4 152 22 0 18 -9 20 -152 22 l-153 3 -5 144
c-4 103 -9 146 -17 149 -7 2 -15 -2 -18 -10z"/>
</g>
</svg>
